<svg xmlns="http://www.w3.org/2000/svg" xmlns:xlink="http://www.w3.org/1999/xlink" width="147.5" height="74.639" viewBox="0 0 147.5 74.639">
  <defs>
    <clipPath id="clip-path">
      <rect id="사각형_29884" data-name="사각형 29884" width="147.5" height="74.639" transform="translate(0 -0.001)" fill="#fff"/>
    </clipPath>
  </defs>
  <g id="그룹_7512" data-name="그룹 7512" transform="translate(0 0.001)">
    <g id="그룹_7511" data-name="그룹 7511" clip-path="url(#clip-path)">
      <path id="패스_9912" data-name="패스 9912" d="M34.929,46.763a15.6,15.6,0,0,1-3.392-.361,6.225,6.225,0,0,1-2.778-1.337,5.582,5.582,0,0,1-1.673-2.726,10.247,10.247,0,0,1-.053-4.573l4.739-26.887a9.728,9.728,0,0,1,3.635.647,7.023,7.023,0,0,1,2.7,1.841,6.768,6.768,0,0,1,1.509,2.824,7.782,7.782,0,0,1,.048,3.54Z" fill="#fff"/>
      <path id="패스_9913" data-name="패스 9913" d="M52.382,46.763a15.674,15.674,0,0,1-3.4-.361,6.251,6.251,0,0,1-2.775-1.337,5.616,5.616,0,0,1-1.673-2.726,10.32,10.32,0,0,1-.051-4.573l4.736-26.887a9.759,9.759,0,0,1,3.641.647,7.071,7.071,0,0,1,2.7,1.841,6.792,6.792,0,0,1,1.513,2.824,7.768,7.768,0,0,1,.047,3.54Z" fill="#fff"/>
      <path id="패스_9914" data-name="패스 9914" d="M133.5,24.274a21.743,21.743,0,0,1-2.155,6.58,12,12,0,0,1-3.682,4.162,14.513,14.513,0,0,1-5.357,2.2,35.561,35.561,0,0,1-7.177.645h-5.409a43.162,43.162,0,0,1-5.6-.385,15.468,15.468,0,0,1-1.2,3.735,9.031,9.031,0,0,1-2.175,2.941,9.746,9.746,0,0,1-3.373,1.913,14.793,14.793,0,0,1-4.831.7l3.925-22.489a20.868,20.868,0,0,1,2.054-6.289,11.946,11.946,0,0,1,3.617-4.14,14.532,14.532,0,0,1,5.384-2.272,34.917,34.917,0,0,1,7.417-.7h4.973a32.7,32.7,0,0,1,6.817.622,10.1,10.1,0,0,1,4.618,2.129,7.347,7.347,0,0,1,2.3,4.09,16.989,16.989,0,0,1-.14,6.554M106.231,25.9a3.21,3.21,0,0,0,.552,1.722,3.891,3.891,0,0,0,1.239,1.146,5.967,5.967,0,0,0,1.68.646,7.891,7.891,0,0,0,1.791.216h5.213a9.092,9.092,0,0,0,1.917-.216,8.458,8.458,0,0,0,1.909-.646,5.693,5.693,0,0,0,1.628-1.146,4.92,4.92,0,0,0,1.1-1.722,8.459,8.459,0,0,0,.576-3.061,2.947,2.947,0,0,0-.5-1.725,3.842,3.842,0,0,0-1.269-1.15,6.349,6.349,0,0,0-1.7-.644,8.31,8.31,0,0,0-1.839-.215h-5.215a9.248,9.248,0,0,0-1.868.215,8.41,8.41,0,0,0-1.889.644,6.28,6.28,0,0,0-1.625,1.15,4.664,4.664,0,0,0-1.126,1.725,6.769,6.769,0,0,0-.428,1.53,9.031,9.031,0,0,0-.146,1.531" fill="#fff"/>
      <path id="패스_9915" data-name="패스 9915" d="M64.676,14.962l-.486-.034.838-3.615c-.586-.019-1.1-.042-1.523-.066l-1.522,6.56c5.953.414,28.779.752,35-8.313-6.853,4.857-19.463,5.629-26.749,5.629-3.12,0-5.262-.141-5.558-.161" fill="#fff"/>
      <path id="패스_9916" data-name="패스 9916" d="M101.166,0a9.517,9.517,0,0,1-2.38,2.564c-.241.186-.491.369-.753.543-8.721,5.8-28.278,5.186-31.143,5.06l-.677,2.919-.656,2.828c8.839.548,26.03-.182,32.754-6.55.231-.218.452-.443.657-.674a8.69,8.69,0,0,0,2.2-6.69" fill="#fff"/>
      <path id="패스_9917" data-name="패스 9917" d="M82.736,19.318,78.124,46.762H68.649L73.4,20.156a89.949,89.949,0,0,0,9.341-.857Z" fill="#fff"/>
      <path id="패스_9918" data-name="패스 9918" d="M6.376,59.889v.222a4.818,4.818,0,0,0,3.807,4.861l-.517.961a.994.994,0,0,1-1.257.333,5.576,5.576,0,0,1-3.215-2.883,6.158,6.158,0,0,1-3.383,3.179A.978.978,0,0,1,.5,66.119v0l-.5-.96a4.966,4.966,0,0,0,3.826-5.046v-.222H.684v-1.5H9.555v1.5Zm4.436,7.557c.869-.37.851-1.128.851-1.923V62.884H8.576v-1.5h3.087V57.838h2.42V65.6a2.717,2.717,0,0,1-1.663,2.646,3.3,3.3,0,0,1,1.367,2.679c0,1.848-1.571,3.7-4.657,3.715-2.458.019-4.676-1.256-4.639-3.715.037-2.551,2.365-3.7,4.657-3.7a6.117,6.117,0,0,1,1.664.222m-3.9,3.474a2.107,2.107,0,0,0,2.009,2.2,2.084,2.084,0,0,0,.209,0,2.076,2.076,0,0,0,2.234-1.9,2.265,2.265,0,0,0,0-.3,2.046,2.046,0,0,0-2.218-2.175,2.108,2.108,0,0,0-2.233,1.977,1.984,1.984,0,0,0,0,.2" fill="#fff"/>
      <path id="패스_9919" data-name="패스 9919" d="M25.837,66.155v2.753h6.469v1.5H17.317v-1.5h6.062V66.155H21.124c-1.367,0-1.959-.721-1.959-1.793v-5.97H21.6v2.384h6.044V58.392H30.07V64.75c0,1.035-.222,1.4-1.331,1.4ZM21.6,62.276V64.05c0,.406.185.61.647.61h5.4V62.276Z" fill="#fff"/>
      <path id="패스_9920" data-name="패스 9920" d="M46.7,64.381H42.618v1.386h6.32v1.46H33.931v-1.46h6.228V64.381H37.572A1.713,1.713,0,0,1,35.8,62.732c0-.048,0-.1,0-.144V58.042H46.517V59.5H38.238v.887h8.279v1.46H38.238v.333c0,.481.222.739.8.739H46.7Zm-.665,6.912c0,2.218-2.051,3.328-4.51,3.328-2.421,0-4.51-1.109-4.51-3.327s2.07-3.346,4.51-3.346c2.476,0,4.51,1.128,4.51,3.346m-6.6,0a2.1,2.1,0,0,0,4.177,0,1.83,1.83,0,0,0-2.088-1.848,1.847,1.847,0,0,0-2.072,1.592,1.693,1.693,0,0,0-.016.256" fill="#fff"/>
      <path id="패스_9921" data-name="패스 9921" d="M56.184,58.485v1.793a5.125,5.125,0,0,0,3.863,5.082l-.555.962c-.351.647-.979.388-1.312.277A6.258,6.258,0,0,1,55.02,63.6a6.741,6.741,0,0,1-3.363,3.29c-.407.13-1,.3-1.331-.35l-.5-.924a5.477,5.477,0,0,0,3.84-5.343V58.485Zm-.665,13.547a.462.462,0,0,0,.4.518.5.5,0,0,0,.122,0h8.114v1.515h-9.1a1.776,1.776,0,0,1-1.977-1.549,1.811,1.811,0,0,1,0-.429V68.521h2.439Zm8.465-14.194V68.3a1,1,0,0,1-1.072,1.127H61.193a.81.81,0,0,0,.332-.739V57.838Z" fill="#fff"/>
      <path id="패스_9922" data-name="패스 9922" d="M73.131,60.611c0-.2-.055-.462-.48-.462h-4.9V58.67H73.7c1.46,0,1.811.74,1.811,1.7v.942a7.743,7.743,0,0,1-1.884,5.231,10.4,10.4,0,0,1-4.4,2.956.749.749,0,0,1-1.022-.283.707.707,0,0,1-.068-.16l-.406-.851a9.557,9.557,0,0,0,4.156-2.955,7.019,7.019,0,0,0,1.239-4.638m7.485,10.479a1.017,1.017,0,0,1-1.09,1.128h-1.7a.772.772,0,0,0,.333-.739V58.042h2.458Z" fill="#fff"/>
      <path id="패스_9923" data-name="패스 9923" d="M92.073,61.054a2.5,2.5,0,0,1,.5,1.534,2.916,2.916,0,0,1-2.513,2.754v.924h2.273A4.618,4.618,0,0,0,95,65.674V57.857h2.421v9.481c0,.61-.3,1.312-1.072,1.312H94.662A1.162,1.162,0,0,0,95,67.726v-.555a5.238,5.238,0,0,1-2.587.591H83.591v-1.5h4.082v-.887a2.985,2.985,0,0,1-2.68-2.791,2.5,2.5,0,0,1,.5-1.534h-1.62V59.517h3.84V57.284h2.46v.758A1.393,1.393,0,0,1,89.3,59.52h4.527v1.534Zm5.193,12.087a1.017,1.017,0,0,1-1.09,1.128H94.5a.774.774,0,0,0,.332-.74V70.683H85.973v-1.5h10.26c.739,0,1.034.3,1.034,1Zm-8.5-9.093a1.479,1.479,0,1,0-1.422-1.534c0,.011,0,.023,0,.034a1.377,1.377,0,0,0,1.25,1.495,1.244,1.244,0,0,0,.173,0" fill="#fff"/>
      <path id="패스_9924" data-name="패스 9924" d="M109.853,65.785a4.922,4.922,0,0,1-2.033.388h-7.707V64.694h2.07c-.425-.111-.647-.388-.647-.961V59.889h-1.423v-1.5h9.371v1.5h-1.572v3.678c0,.7-.167.943-.61,1.128h.591a5.19,5.19,0,0,0,1.959-.406Zm-4.251-5.9h-1.756v3.974c0,.48.092.831.555.831h.647c.444,0,.555-.333.555-.758Zm5.008,7.559c.869-.37.851-1.128.851-1.923V63.974a3.6,3.6,0,0,1-.979.147h-1.257V62.646h1.626a1.583,1.583,0,0,0,.61-.092v-.832a2.409,2.409,0,0,0-.648-.092h-1.608V60.146H110.5a3.049,3.049,0,0,1,.962.148V57.838h2.42V65.6a2.717,2.717,0,0,1-1.663,2.643,3.3,3.3,0,0,1,1.367,2.679c0,1.848-1.57,3.7-4.657,3.715-2.458.019-4.676-1.256-4.639-3.715.037-2.551,2.366-3.7,4.658-3.7a6.1,6.1,0,0,1,1.663.222m-3.9,3.474a2.107,2.107,0,0,0,2.009,2.2,2.4,2.4,0,0,0,2.443-1.9,2.266,2.266,0,0,0,0-.3,2.046,2.046,0,0,0-1.9-2.184,2.464,2.464,0,0,0-2.553,1.981,1.961,1.961,0,0,0,0,.2" fill="#fff"/>
      <path id="패스_9925" data-name="패스 9925" d="M122.883,60.611c0-.2-.055-.462-.48-.462h-4.9V58.67h5.951c1.46,0,1.811.739,1.811,1.7v.942a7.742,7.742,0,0,1-1.884,5.23,10.4,10.4,0,0,1-4.4,2.957.75.75,0,0,1-1.022-.283.734.734,0,0,1-.068-.161l-.406-.85a9.559,9.559,0,0,0,4.157-2.957,7.019,7.019,0,0,0,1.239-4.638M130,63.4a1.57,1.57,0,0,1,1.239-.444h1.46v1.5h-2.7v6.617a1,1,0,0,1-1.072,1.128h-1.7a.774.774,0,0,0,.332-.74V58.042h2.44Z" fill="#fff"/>
      <path id="패스_9926" data-name="패스 9926" d="M133.4,66.414v-1.5h6.728a9.274,9.274,0,0,0,3.826-.573v1.553a10.631,10.631,0,0,1-3.789.517h-1.053v1.331a1.017,1.017,0,0,1-1.09,1.128h-1.7a.774.774,0,0,0,.333-.739V66.414Zm9.223-5.452c0,1.941-1.811,3.179-4.214,3.179-2.347,0-4.176-1.238-4.176-3.179,0-1.922,1.829-3.179,4.176-3.179,2.4,0,4.214,1.257,4.214,3.179M138.5,72.033a.459.459,0,0,0,.393.517.43.43,0,0,0,.124,0H147.5v1.515h-9.46a1.776,1.776,0,0,1-1.978-1.548,1.811,1.811,0,0,1,0-.429v-2.4h2.44Zm-.093-9.407a1.668,1.668,0,1,0-1.774-1.7,1.647,1.647,0,0,0,1.774,1.7m3.235,4.713h3.235v-9.5h2.458V69.224a1.018,1.018,0,0,1-.9,1.127,1.1,1.1,0,0,1-.2,0h-1.7a.775.775,0,0,0,.334-.74V68.8h-3.234Z" fill="#fff"/>
    </g>
  </g>
</svg>
